<svg version="1.2" xmlns="http://www.w3.org/2000/svg" viewBox="0 0 30 30" width="30" height="30">
	<style>
	</style>
	<path class="s0" d="m0 2c0-1.1 0.9-2 2-2h26c1.1 0 2 0.9 2 2v26c0 1.1-0.9 2-2 2h-26c-1.1 0-2-0.9-2-2z" fill = '#79e087'/>
	<path class="s1" d="m24.6 7.8l-1.7-2.3q-0.4-0.5-0.9-0.5-0.5 0-0.9 0.5l-8.4 11-3.8-4.9q-0.4-0.5-0.9-0.5-0.5 0-0.9 0.5l-1.7 2.3q-0.4 0.4-0.4 1.1 0 0.7 0.4 1.1l4.6 6.1 1.8 2.3q0.3 0.5 0.9 0.5 0.5 0 0.8-0.5l1.8-2.3 9.3-12.1q0.4-0.5 0.4-1.2 0-0.7-0.4-1.1z" fill = '#ffffff'/>
</svg>